<svg width="207" height="104" viewBox="0 0 207 104" fill="none" xmlns="http://www.w3.org/2000/svg">
<mask id="mask0_1_185" style="mask-type:alpha" maskUnits="userSpaceOnUse" x="0" y="0" width="207" height="104">
<path d="M0 0H207V104H0V0Z" fill="#F4F4F4"/>
</mask>
<g mask="url(#mask0_1_185)">
<path fill-rule="evenodd" clip-rule="evenodd" d="M1.94531 25.752C1.94531 25.4758 2.16917 25.252 2.44531 25.252H35.6363C35.9124 25.252 36.1363 25.4758 36.1363 25.752V101.427C36.1363 101.703 35.9124 101.927 35.6363 101.927H2.44531C2.16917 101.927 1.94531 101.703 1.94531 101.427V25.752ZM2.94531 26.252V100.927H35.1363V26.252H2.94531Z" fill="#140E41"/>
<path fill-rule="evenodd" clip-rule="evenodd" d="M181.176 25.752C181.176 25.4758 181.4 25.252 181.676 25.252H214.867C215.143 25.252 215.367 25.4758 215.367 25.752V101.427C215.367 101.703 215.143 101.927 214.867 101.927H181.676C181.4 101.927 181.176 101.703 181.176 101.427V25.752ZM182.176 26.252V100.927H214.367V26.252H182.176Z" fill="#140E41"/>
<path fill-rule="evenodd" clip-rule="evenodd" d="M36.1348 45.6405V100.927H181.175V61.9043C180.156 62.3861 179.184 62.8522 178.247 63.302C173.574 65.5437 169.748 67.3794 165.07 68.7158C159.225 70.3857 152.062 71.2758 140.22 71.2758C125.908 71.2758 116.503 68.1408 107.343 63.8963C104.754 62.6962 102.192 61.4121 99.5483 60.0871C92.838 56.7237 85.6031 53.0974 76.0627 49.9173C62.5655 45.4183 49.0583 45.535 39.232 45.6199C38.1536 45.6292 37.1196 45.6381 36.1348 45.6405ZM39.2157 44.6196C49.0332 44.5333 62.712 44.413 76.3789 48.9686C85.9917 52.1728 93.3246 55.8481 100.054 59.2211C102.683 60.5385 105.219 61.8098 107.764 62.9889C116.826 67.1887 126.087 70.2758 140.22 70.2758C152.017 70.2758 159.076 69.3882 164.796 67.7543C169.385 66.4432 173.12 64.6516 177.781 62.4157C178.942 61.859 180.16 61.2748 181.463 60.6635C181.618 60.5909 181.799 60.6024 181.943 60.6942C182.088 60.7859 182.175 60.9451 182.175 61.1162V101.427C182.175 101.703 181.951 101.927 181.675 101.927H35.6348C35.3586 101.927 35.1348 101.703 35.1348 101.427V45.1412C35.1348 44.865 35.3586 44.6412 35.6348 44.6412C36.7593 44.6412 37.9557 44.6307 39.2157 44.6196Z" fill="#140E41"/>
<path fill-rule="evenodd" clip-rule="evenodd" d="M19.3327 24.888C25.1622 24.888 29.888 20.1622 29.888 14.3327C29.888 8.50313 25.1622 3.77734 19.3327 3.77734C13.5031 3.77734 8.77734 8.50313 8.77734 14.3327C8.77734 20.1622 13.5031 24.888 19.3327 24.888ZM19.3327 25.888C25.7145 25.888 30.888 20.7145 30.888 14.3327C30.888 7.95084 25.7145 2.77734 19.3327 2.77734C12.9508 2.77734 7.77734 7.95084 7.77734 14.3327C7.77734 20.7145 12.9508 25.888 19.3327 25.888Z" fill="#140E41"/>
<path fill-rule="evenodd" clip-rule="evenodd" d="M198.885 24.888C204.715 24.888 209.441 20.1622 209.441 14.3327C209.441 8.50313 204.715 3.77734 198.885 3.77734C193.056 3.77734 188.33 8.50313 188.33 14.3327C188.33 20.1622 193.056 24.888 198.885 24.888ZM198.885 25.888C205.267 25.888 210.441 20.7145 210.441 14.3327C210.441 7.95084 205.267 2.77734 198.885 2.77734C192.504 2.77734 187.33 7.95084 187.33 14.3327C187.33 20.7145 192.504 25.888 198.885 25.888Z" fill="#140E41"/>
</g>
</svg>
